<svg width="33" height="34" viewBox="0 0 33 34" fill="none" xmlns="http://www.w3.org/2000/svg">
<g id="facebook 1" clip-path="url(#clip0_135_141)">
<path id="Vector" d="M16.3119 34.0001C25.3207 34.0001 32.6238 26.389 32.6238 17.0001C32.6238 7.61128 25.3207 0.00012207 16.3119 0.00012207C7.30309 0.00012207 0 7.61128 0 17.0001C0 26.389 7.30309 34.0001 16.3119 34.0001Z" fill="white"/>
<path id="Vector_2" d="M21.6657 5.21838H18.0522C15.9079 5.21838 13.5227 6.15832 13.5227 9.39779C13.5332 10.5265 13.5227 11.6076 13.5227 12.8242H11.042V16.9383H13.5995V28.7821H18.299V16.8601H21.4009L21.6816 12.8126H18.2181C18.2181 12.8126 18.2258 11.0121 18.2181 10.4892C18.2181 9.20908 19.4962 9.28239 19.5731 9.28239C20.1813 9.28239 21.3639 9.28424 21.6675 9.28239V5.21838H21.6657Z" fill="#95CFA1"/>
</g>
<defs>
<clipPath id="clip0_135_141">
<rect width="32.6238" height="34" fill="white"/>
</clipPath>
</defs>
</svg>
