<svg width="33" height="34" viewBox="0 0 33 34" fill="none" xmlns="http://www.w3.org/2000/svg">
<g id="twitter (1) 1" clip-path="url(#clip0_135_144)">
<path id="Vector" d="M16.4818 34C25.4906 34 32.7937 26.3888 32.7937 17C32.7937 7.61116 25.4906 0 16.4818 0C7.47301 0 0.169922 7.61116 0.169922 17C0.169922 26.3888 7.47301 34 16.4818 34Z" fill="white"/>
<path id="Vector_2" d="M26.9413 10.2374C26.1719 10.5932 25.3455 10.8338 24.4767 10.9419C25.3634 10.3885 26.0428 9.51152 26.3635 8.46779C25.5212 8.98921 24.5993 9.35629 23.6379 9.55308C22.8556 8.68397 21.7399 8.14136 20.5056 8.14136C18.1365 8.14136 16.2151 10.143 16.2151 12.6135C16.2151 12.9635 16.253 13.305 16.3257 13.6329C12.7593 13.4461 9.59743 11.6657 7.48104 8.96036C7.11149 9.62108 6.89996 10.3893 6.89996 11.2089C6.89996 12.7603 7.65762 14.1291 8.80887 14.9309C8.12735 14.9088 7.46078 14.7171 6.8649 14.3717V14.4282C6.8649 16.5952 8.34383 18.4021 10.307 18.8131C9.94638 18.9161 9.56791 18.9699 9.17637 18.9699C8.89954 18.9699 8.63096 18.9426 8.36858 18.8911C8.91466 20.6673 10.4994 21.9601 12.3767 21.9967C10.908 23.1965 9.05751 23.9117 7.04763 23.9117C6.70145 23.9117 6.35931 23.8902 6.02344 23.848C7.92276 25.1172 10.1779 25.8582 12.6013 25.8582C20.494 25.8582 24.8105 19.0436 24.8105 13.134C24.8105 12.94 24.8064 12.7474 24.7974 12.5555C25.6384 11.9216 26.3644 11.1366 26.9413 10.2374Z" fill="#95CFA1"/>
</g>
<defs>
<clipPath id="clip0_135_144">
<rect width="32.6238" height="34" fill="white" transform="translate(0.17041)"/>
</clipPath>
</defs>
</svg>
