<svg width="33" height="34" viewBox="0 0 33 34" fill="none" xmlns="http://www.w3.org/2000/svg">
<g id="twitter (1) 2" clip-path="url(#clip0_135_147)">
<path id="Vector" d="M16.6532 34C25.662 34 32.9651 26.3888 32.9651 17C32.9651 7.61116 25.662 0 16.6532 0C7.6444 0 0.341309 7.61116 0.341309 17C0.341309 26.3888 7.6444 34 16.6532 34Z" fill="white"/>
<path id="Vector_2" d="M22.0953 10.9455C21.8793 10.9455 21.6683 11.0095 21.4887 11.1295C21.3092 11.2494 21.1693 11.4199 21.0867 11.6194C21.004 11.8189 20.9824 12.0384 21.0245 12.2502C21.0667 12.4619 21.1706 12.6565 21.3233 12.8091C21.476 12.9618 21.6705 13.0658 21.8823 13.1079C22.0941 13.15 22.3136 13.1284 22.513 13.0458C22.7125 12.9632 22.883 12.8232 23.003 12.6437C23.1229 12.4642 23.187 12.2531 23.187 12.0372C23.187 11.7476 23.0719 11.47 22.8672 11.2652C22.6625 11.0605 22.3848 10.9455 22.0953 10.9455ZM26.2801 13.1471C26.2624 12.3923 26.1211 11.6454 25.8616 10.9364C25.6303 10.3297 25.2703 9.78034 24.8063 9.32612C24.3558 8.8598 23.8052 8.50204 23.1961 8.2799C22.4889 8.01258 21.7412 7.86797 20.9854 7.85231C20.021 7.79773 19.7117 7.79773 17.2372 7.79773C14.7627 7.79773 14.4533 7.79773 13.489 7.85231C12.7331 7.86797 11.9855 8.01258 11.2783 8.2799C10.6703 8.50429 10.1201 8.86174 9.66803 9.32612C9.20172 9.7766 8.84396 10.3272 8.62182 10.9364C8.3545 11.6436 8.20989 12.3912 8.19423 13.1471C8.13965 14.1114 8.13965 14.4207 8.13965 16.8953C8.13965 19.3698 8.13965 19.6791 8.19423 20.6434C8.20989 21.3993 8.3545 22.147 8.62182 22.8541C8.84396 23.4633 9.20172 24.0139 9.66803 24.4644C10.1201 24.9288 10.6703 25.2862 11.2783 25.5106C11.9855 25.7779 12.7331 25.9226 13.489 25.9382C14.4533 25.9928 14.7627 25.9928 17.2372 25.9928C19.7117 25.9928 20.021 25.9928 20.9854 25.9382C21.7412 25.9226 22.4889 25.7779 23.1961 25.5106C23.8052 25.2885 24.3558 24.9307 24.8063 24.4644C25.2723 24.0119 25.6327 23.462 25.8616 22.8541C26.1211 22.1451 26.2624 21.3983 26.2801 20.6434C26.2801 19.6791 26.3347 19.3698 26.3347 16.8953C26.3347 14.4207 26.3347 14.1114 26.2801 13.1471ZM24.6426 20.5343C24.636 21.1118 24.5314 21.6839 24.3333 22.2264C24.188 22.6223 23.9547 22.9801 23.6509 23.2726C23.3559 23.5733 22.9989 23.8061 22.6047 23.955C22.0622 24.1531 21.4901 24.2576 20.9126 24.2643C20.0028 24.3098 19.6662 24.3189 17.2736 24.3189C14.8809 24.3189 14.5443 24.3189 13.6346 24.2643C13.0349 24.2755 12.4379 24.1832 11.8696 23.9913C11.4928 23.8349 11.1522 23.6027 10.8689 23.309C10.567 23.0168 10.3366 22.6587 10.1957 22.2628C9.97358 21.7125 9.85039 21.1274 9.83179 20.5343C9.83179 19.6245 9.7772 19.2879 9.7772 16.8953C9.7772 14.5026 9.7772 14.166 9.83179 13.2562C9.83587 12.6659 9.94364 12.0808 10.1502 11.5277C10.3104 11.1437 10.5562 10.8014 10.8689 10.527C11.1453 10.2142 11.4869 9.96576 11.8696 9.79919C12.4242 9.59908 13.0086 9.49449 13.5982 9.48987C14.5079 9.48987 14.8445 9.43529 17.2372 9.43529C19.6298 9.43529 19.9664 9.43529 20.8762 9.48987C21.4537 9.49649 22.0259 9.60108 22.5683 9.79919C22.9818 9.95262 23.3528 10.2021 23.6509 10.527C23.9491 10.8064 24.182 11.1481 24.3333 11.5277C24.5355 12.0817 24.6401 12.6665 24.6426 13.2562C24.6881 14.166 24.6972 14.5026 24.6972 16.8953C24.6972 19.2879 24.6881 19.6245 24.6426 20.5343ZM17.2372 12.2282C16.3145 12.23 15.4131 12.5053 14.6468 13.0192C13.8805 13.5331 13.2837 14.2626 12.9319 15.1156C12.5801 15.9685 12.4889 16.9066 12.67 17.8113C12.8511 18.716 13.2963 19.5468 13.9494 20.1986C14.6025 20.8503 15.4341 21.2939 16.3391 21.4733C17.2442 21.6526 18.1821 21.5597 19.0344 21.2062C19.8866 20.8527 20.615 20.2545 21.1274 19.4872C21.6398 18.7199 21.9133 17.8179 21.9133 16.8953C21.9145 16.2813 21.7943 15.6731 21.5596 15.1057C21.325 14.5384 20.9804 14.023 20.5458 13.5893C20.1113 13.1555 19.5952 12.812 19.0274 12.5784C18.4596 12.3448 17.8512 12.2258 17.2372 12.2282ZM17.2372 19.9247C16.638 19.9247 16.0523 19.7471 15.5541 19.4142C15.0559 19.0813 14.6676 18.6082 14.4383 18.0546C14.209 17.501 14.149 16.8919 14.2659 16.3042C14.3828 15.7166 14.6713 15.1768 15.095 14.7531C15.5187 14.3294 16.0585 14.0409 16.6462 13.924C17.2338 13.8071 17.8429 13.8671 18.3965 14.0964C18.9501 14.3257 19.4232 14.714 19.7561 15.2122C20.089 15.7104 20.2667 16.2961 20.2667 16.8953C20.2667 17.2931 20.1883 17.687 20.0361 18.0546C19.8838 18.4221 19.6607 18.7561 19.3793 19.0374C19.098 19.3187 18.7641 19.5419 18.3965 19.6941C18.029 19.8464 17.635 19.9247 17.2372 19.9247Z" fill="#95CFA1"/>
</g>
<defs>
<clipPath id="clip0_135_147">
<rect width="32.6238" height="34" fill="white" transform="translate(0.34082)"/>
</clipPath>
</defs>
</svg>
